<svg xmlns="http://www.w3.org/2000/svg" style="display: none;">
  
    <symbol id="icon-link" viewBox="0 0 512 512">
      <path d="m202 376c5-5 10-7 17-7c7 0 13 2 19 7c10 11 10 23 0 36c0 0-22 20-22 20c-19 19-42 29-68 29c-26 0-49-10-68-29c-19-19-29-42-29-67c0-27 10-50 29-69c0 0 76-76 76-76c24-23 48-36 73-39c26-3 47 4 66 22c5 5 8 11 8 18c0 7-3 13-8 19c-12 11-24 11-36 0c-17-17-40-11-68 17c0 0-75 75-75 75c-9 9-14 20-14 33c0 13 5 23 14 31c9 9 19 14 32 14c13 0 23-5 32-14c0 0 22-20 22-20m230-294c19 19 29 42 29 68c0 26-10 49-29 68c0 0-81 81-81 81c-25 25-51 37-77 37c-21 0-40-9-57-26c-5-5-7-10-7-17c0-7 2-13 7-19c5-4 11-7 18-7c7 0 13 3 18 7c17 17 38 13 62-12c0 0 81-80 81-80c10-9 15-20 15-32c0-13-5-24-15-32c-8-9-17-14-28-16c-11-2-22 2-31 11c0 0-26 25-26 25c-5 5-11 7-18 7c-7 0-13-2-18-7c-11-11-11-23 0-36c0 0 26-25 26-25c18-19 40-27 65-26c25 1 47 11 66 31"/>
    </symbol>
  
    <symbol id="icon-calendar" viewBox="0 0 512 512">
      <path d="m55 475l82 0 0-82-82 0z m100 0l92 0 0-82-92 0z m-100-100l82 0 0-92-82 0z m100 0l92 0 0-92-92 0z m-100-110l82 0 0-82-82 0z m210 210l92 0 0-82-92 0z m-110-210l92 0 0-82-92 0z m220 210l82 0 0-82-82 0z m-110-100l92 0 0-92-92 0z m-100-247l0-82c0-3-1-5-3-7-2-2-4-2-7-2l-18 0c-2 0-4 0-6 2-2 2-3 4-3 7l0 82c0 2 1 5 3 6 2 2 4 3 6 3l18 0c3 0 5-1 7-3 2-1 3-4 3-6z m210 247l82 0 0-92-82 0z m-110-110l92 0 0-82-92 0z m110 0l82 0 0-82-82 0z m9-137l0-82c0-3-1-5-3-7-2-2-4-2-6-2l-18 0c-3 0-5 0-7 2-2 2-3 4-3 7l0 82c0 2 1 5 3 6 2 2 4 3 7 3l18 0c2 0 4-1 6-3 2-1 3-4 3-6z m110-18l0 365c0 10-4 19-11 26-7 7-16 11-26 11l-402 0c-10 0-19-4-26-11-7-7-11-16-11-26l0-365c0-10 4-19 11-26 7-7 16-11 26-11l36 0 0-27c0-13 5-24 14-33 9-9 20-13 32-13l18 0c13 0 24 4 33 13 9 9 13 20 13 33l0 27 110 0 0-27c0-13 4-24 13-33 9-9 20-13 33-13l18 0c12 0 23 4 32 13 9 9 14 20 14 33l0 27 36 0c10 0 19 4 26 11 7 7 11 16 11 26z"/>
    </symbol>
  
    <symbol id="icon-phone" viewBox="0 0 512 512">
      <path d="m457 354c0 5-1 12-3 20-2 9-4 15-6 20-4 10-15 20-35 30-17 10-35 15-53 15-5 0-10 0-15-1-5-1-10-2-16-4-6-1-11-3-14-4-3-1-8-3-16-6-7-3-12-4-14-5-18-7-35-14-50-24-24-15-49-35-75-61-26-26-47-51-62-76-9-14-17-31-23-50-1-1-3-6-6-14-2-7-4-13-5-16-1-3-3-7-5-13-1-6-2-12-3-17-1-4-1-9-1-15 0-17 5-35 14-53 11-19 21-31 31-35 4-2 11-4 19-6 9-1 15-2 20-2 3 0 5 0 6 0 4 2 9 9 16 22 2 4 5 9 8 16 4 6 7 12 10 18 3 5 6 10 9 15 1 1 2 3 5 7 3 4 5 8 6 10 1 3 2 6 2 8 0 4-3 9-8 15-5 5-11 11-18 15-6 5-12 10-17 16-6 5-9 9-9 13 0 1 1 4 2 6 1 3 2 5 2 6 1 1 2 4 4 7 2 3 3 5 4 5 14 26 31 49 49 67 19 19 41 36 67 50 1 0 3 1 6 3 3 2 5 4 7 4 1 1 3 2 6 3 2 1 4 1 6 1 3 0 8-2 13-8 5-5 11-11 15-18 5-6 10-12 16-17 6-6 10-8 14-8 3 0 6 0 8 2 3 1 7 3 11 6 4 2 6 4 7 5 4 3 10 6 15 9 5 3 11 6 18 10 7 3 12 6 16 8 13 7 20 12 21 15 1 2 1 4 1 6z"/>
    </symbol>
  
    <symbol id="icon-envelope" viewBox="0 0 512 512">
      <path d="m512 203l0 227c0 12-4 23-13 32-9 9-20 13-33 13l-420 0c-13 0-24-4-33-13-9-9-13-20-13-32l0-227c8 9 18 17 29 25 69 47 116 79 142 98 11 8 20 15 26 19 7 4 16 9 27 14 12 4 22 7 32 7l0 0c10 0 20-3 32-7 11-5 20-10 27-14 6-4 15-11 26-19 33-23 80-56 142-98 11-8 21-16 29-25z m0-84c0 15-5 29-14 43-9 14-21 25-35 35-71 50-116 81-134 93-1 1-6 4-12 9-6 4-11 8-15 11-4 2-9 5-15 9-6 3-11 6-16 8-6 1-10 2-15 2l0 0c-5 0-9-1-15-2-5-2-10-5-16-8-6-4-11-7-15-9-4-3-9-7-15-11-6-5-11-8-12-9-18-12-43-30-75-52-33-23-52-36-59-41-12-8-23-19-33-33-11-14-16-27-16-39 0-15 4-27 12-37 8-10 19-15 34-15l420 0c13 0 23 5 32 14 9 9 14 19 14 32z"/>
    </symbol>
  
    <symbol id="icon-like-filled" viewBox="0 0 512 512">
      <path d="m91 384c0-5-1-9-5-13c-4-3-8-5-13-5c-5 0-9 2-13 5c-3 4-5 8-5 13c0 5 2 9 5 13c4 4 8 5 13 5c5 0 9-1 13-5c4-4 5-8 5-13z m46-146l0 183c0 5-2 9-5 12c-4 4-8 6-13 6l-82 0c-5 0-10-2-13-6c-4-3-6-7-6-12l0-183c0-5 2-10 6-13c3-4 8-6 13-6l82 0c5 0 9 2 13 6c3 3 5 8 5 13z m338 0c0 16-5 30-15 42c3 9 4 16 4 22c1 14-4 28-12 39c3 11 3 22 0 34c-3 10-8 19-16 26c2 22-3 39-14 52c-12 15-31 22-56 22l-37 0c-12 0-26-1-41-4c-15-3-26-6-35-8c-8-3-19-7-34-12c-24-8-39-12-45-12c-5 0-10-2-13-6c-4-3-6-7-6-12l0-184c0-4 2-8 6-12c3-4 7-5 12-6c4 0 12-6 22-17c9-11 19-22 28-34c13-17 23-28 29-35c4-3 7-8 9-13c3-6 4-11 5-14c1-4 2-9 4-17c1-8 3-14 4-18c1-4 2-9 5-15c3-5 6-10 10-14c3-4 8-5 13-5c8 0 16 1 23 3c7 2 13 4 17 7c5 3 9 7 12 12c3 4 5 9 7 12c1 4 2 9 3 15c1 5 1 10 2 13c0 2 0 6 0 11c0 7-1 14-3 21c-2 8-4 13-5 18c-2 4-5 9-8 16c-1 1-2 2-3 5c-1 2-3 4-3 6c-1 2-2 4-3 7l80 0c14 0 27 5 38 16c11 11 16 24 16 39z"/>
    </symbol>
  
    <symbol id="icon-bell" viewBox="0 0 512 512">
      <path d="m261 485c0-3-2-5-5-5-11 0-21-4-29-12-8-8-12-18-12-29 0-3-2-5-5-5-3 0-4 2-4 5 0 14 5 26 14 35 10 10 22 15 36 15 3 0 5-1 5-4z m233-83c0 10-4 19-11 26-7 7-16 11-26 11l-128 0c0 20-7 37-21 52-15 14-32 21-52 21-20 0-37-7-52-21-14-15-21-32-21-52l-128 0c-10 0-19-4-26-11-7-7-11-16-11-26 10-8 18-16 26-25 8-9 16-20 25-34 8-14 15-29 21-45 6-16 10-36 14-59 4-23 6-48 6-74 0-29 11-56 33-81 22-25 52-40 88-45-2-4-2-8-2-12 0-7 2-14 8-19 5-5 11-8 19-8 8 0 14 3 19 8 6 5 8 12 8 19 0 4 0 8-2 12 36 5 66 20 88 45 22 25 33 52 33 81 0 26 2 51 6 74 4 23 8 43 14 59 6 16 13 31 21 45 9 14 17 25 25 34 8 9 16 17 26 25z"/>
    </symbol>
  
</svg>
